<svg width="877" height="299" viewBox="0 0 877 299" fill="none" xmlns="http://www.w3.org/2000/svg">
<path d="M150 0C67.1591 0 0 67.1591 0 150C0 225.205 55.3977 287.298 127.582 298.145V189.757H90.4705V150.327H127.582V124.091C127.582 80.6523 148.745 61.5818 184.848 61.5818C202.139 61.5818 211.282 62.8636 215.611 63.45V97.8682H190.984C175.657 97.8682 170.305 112.398 170.305 128.775V150.327H215.223L209.127 189.757H170.305V298.466C243.518 288.532 300 225.934 300 150C300 67.1591 232.841 0 150 0Z" fill="#4F6F52"/>
<path d="M400.046 235.206C397.661 235.206 395.706 234.395 394.179 232.773C392.748 231.247 392.033 229.244 392.033 226.763C392.033 224.187 392.844 221.421 394.465 218.463C396.087 215.506 398.186 212.549 400.762 209.591C396.373 207.015 392.844 203.819 390.172 200.003C387.597 196.283 386.309 191.99 386.309 187.124C386.309 180.16 388.98 174.436 394.322 169.952C399.76 165.373 407.058 162.607 416.217 161.653V152.351C409.634 151.874 404.53 150.872 400.905 149.346C397.375 147.724 395.61 145.912 395.61 143.908C395.61 141.905 397.375 140.044 400.905 138.327C404.53 136.61 409.586 135.418 416.074 134.75C415.978 131.697 415.787 129.169 415.501 127.165C415.31 125.067 414.976 123.349 414.499 122.014C414.022 120.678 413.402 119.629 412.639 118.866C411.876 118.102 410.97 117.53 409.92 117.148V116.719C411.351 116.624 413.068 116.242 415.072 115.574C417.171 114.907 419.269 114.143 421.368 113.285C423.467 112.331 425.423 111.281 427.235 110.137C429.143 108.992 430.574 107.847 431.528 106.702L431.958 106.988C430.717 108.896 430.097 114.382 430.097 123.445V134.464C433.818 134.654 437.348 135.084 440.687 135.751C444.026 136.324 447.174 137.087 450.131 138.041C453.566 134.13 455.283 129.503 455.283 124.16C455.283 120.344 454.377 117.005 452.564 114.143C450.751 111.186 448.319 108.706 445.266 106.702C442.309 104.699 438.922 103.22 435.106 102.266C431.29 101.217 427.331 100.692 423.229 100.692C418.936 100.692 414.881 101.217 411.065 102.266C407.249 103.315 403.862 104.794 400.905 106.702C397.948 108.515 395.61 110.614 393.893 112.999C392.176 115.384 391.317 117.959 391.317 120.726C391.317 124.733 392.891 126.736 396.04 126.736C398.329 126.736 400.046 125.544 401.191 123.159C401.096 125.639 400.619 127.833 399.76 129.741C398.902 131.649 397.757 133.271 396.326 134.607C394.99 135.942 393.464 136.992 391.747 137.755C390.125 138.423 388.408 138.757 386.595 138.757C382.97 138.757 379.965 137.469 377.58 134.893C375.29 132.317 374.145 128.883 374.145 124.59C374.145 120.201 375.433 116.147 378.009 112.426C380.585 108.706 384.162 105.462 388.741 102.695C393.321 99.9288 398.711 97.7823 404.912 96.2559C411.208 94.6341 418.029 93.8232 425.375 93.8232C432.244 93.8232 438.493 94.5387 444.121 95.9697C449.845 97.4007 454.711 99.4518 458.717 102.123C462.82 104.699 465.968 107.847 468.162 111.568C470.452 115.288 471.596 119.39 471.596 123.874C471.596 131.506 468.257 137.85 461.579 142.906C469.021 147.199 474.601 152.494 478.322 158.791C482.043 164.992 483.903 171.383 483.903 177.966C483.903 184.644 482.424 190.463 479.467 195.424C476.509 200.385 472.598 204.487 467.733 207.731C462.963 211.07 457.525 213.503 451.419 215.029C445.314 216.651 439.113 217.462 432.816 217.462C427.665 217.462 422.656 216.937 417.791 215.888C412.925 214.838 408.442 213.359 404.339 211.451C402.431 214.123 401.477 216.555 401.477 218.75C401.477 220.085 401.811 221.087 402.479 221.755C403.147 222.422 403.862 222.756 404.626 222.756C405.389 222.756 406.057 222.422 406.629 221.755C407.297 221.182 407.631 220.228 407.631 218.893C408.108 219.751 408.394 220.61 408.489 221.468C408.68 222.422 408.775 223.329 408.775 224.187C408.775 226.954 408.012 229.482 406.486 231.772C405.055 234.061 402.908 235.206 400.046 235.206ZM430.097 147.343C435.249 146.77 439.78 145.435 443.692 143.336C441.593 142.382 439.399 141.571 437.109 140.903C434.915 140.235 432.578 139.806 430.097 139.615V147.343ZM416.217 141.475V140.044C411.256 140.712 408.775 141.809 408.775 143.336C408.775 144.958 411.256 146.198 416.217 147.056V141.475ZM436.394 191.274C432.387 191.942 428.142 193.468 423.658 195.853C419.174 198.239 415.12 200.957 411.494 204.01C413.975 205.918 416.932 207.397 420.367 208.446C423.801 209.591 427.808 210.164 432.387 210.164C436.585 210.164 440.734 209.543 444.837 208.303C449.034 207.063 452.755 205.155 455.998 202.579C459.337 200.099 462.009 196.903 464.012 192.991C466.111 189.08 467.16 184.405 467.16 178.968C467.16 172.671 465.777 166.9 463.01 161.653C460.244 156.31 456.523 151.826 451.849 148.201C448.796 149.346 445.457 150.3 441.832 151.063C438.302 151.826 434.39 152.303 430.097 152.494V161.796C434.295 162.273 438.111 163.131 441.545 164.371C444.98 165.516 447.937 167.043 450.418 168.951C452.898 170.763 454.806 172.862 456.142 175.247C457.573 177.632 458.288 180.208 458.288 182.974C458.288 186.6 457.239 189.319 455.14 191.131C453.041 192.848 450.704 193.707 448.128 193.707C445.648 193.707 443.358 192.896 441.259 191.274C439.256 189.652 438.254 187.315 438.254 184.262C439.017 184.835 439.733 185.121 440.401 185.121C441.45 185.121 442.309 184.692 442.976 183.833C443.644 182.974 443.978 181.877 443.978 180.542C443.978 177.775 442.642 175.342 439.971 173.244C437.395 171.145 434.104 169.618 430.097 168.664C430.097 173.053 430.24 176.63 430.527 179.397C430.813 182.068 431.194 184.215 431.671 185.836C432.148 187.363 432.769 188.508 433.532 189.271C434.295 189.939 435.249 190.463 436.394 190.845V191.274ZM408.919 201.721C409.777 200.957 410.636 200.242 411.494 199.574C412.353 198.906 413.259 198.239 414.213 197.571C415.072 195.186 415.597 192.562 415.787 189.7C416.074 186.743 416.217 184.31 416.217 182.402V168.664C411.447 169.905 407.965 172.242 405.77 175.676C403.672 179.015 402.622 182.736 402.622 186.838C402.622 192.371 404.721 197.332 408.919 201.721ZM519.5 199.431C512.345 199.431 506.192 197.618 501.04 193.993C495.889 190.368 492.55 185.598 491.023 179.683C492.359 179.111 493.17 178.157 493.456 176.821C493.742 175.39 493.933 174.007 494.028 172.671L495.316 131.888C495.316 130.552 495.269 129.121 495.173 127.595C495.173 126.068 494.935 124.59 494.458 123.159C494.076 121.728 493.456 120.44 492.597 119.295C491.834 118.15 490.689 117.339 489.163 116.862V116.433H514.349V116.862C512.822 117.339 511.63 118.15 510.771 119.295C510.008 120.44 509.436 121.728 509.054 123.159C508.672 124.59 508.434 126.068 508.338 127.595C508.243 129.121 508.195 130.552 508.195 131.888L506.907 174.675C506.717 179.635 507.814 183.595 510.199 186.552C512.584 189.414 515.923 190.845 520.216 190.845C524.509 190.845 527.848 189.414 530.233 186.552C532.713 183.69 533.858 179.779 533.667 174.818L532.379 131.888C532.379 130.552 532.332 129.121 532.236 127.595C532.141 126.068 531.902 124.59 531.521 123.159C531.139 121.728 530.519 120.44 529.66 119.295C528.897 118.15 527.752 117.339 526.226 116.862V116.433H549.694V116.862C548.168 117.339 546.975 118.15 546.117 119.295C545.354 120.44 544.734 121.728 544.257 123.159C543.875 124.59 543.636 126.068 543.541 127.595C543.541 129.121 543.541 130.552 543.541 131.888L544.829 173.387C544.924 174.627 545.163 175.867 545.544 177.107C545.926 178.252 546.689 179.111 547.834 179.683C546.308 185.693 542.969 190.511 537.817 194.136C532.761 197.666 526.655 199.431 519.5 199.431ZM578.891 199.288C574.312 199.288 569.828 198.382 565.44 196.569C561.147 194.756 557.569 192.037 554.707 188.412L560.002 169.094H560.431C560.813 172.624 561.671 175.676 563.007 178.252C564.343 180.828 565.917 182.974 567.729 184.692C569.637 186.409 571.688 187.697 573.883 188.555C576.077 189.319 578.223 189.7 580.322 189.7C583.566 189.7 586.332 188.746 588.622 186.838C591.007 184.835 592.199 181.973 592.199 178.252C592.199 175.104 591.293 172.48 589.481 170.382C587.763 168.187 585.569 166.184 582.898 164.371C580.322 162.559 577.46 160.794 574.312 159.077C571.259 157.36 568.397 155.452 565.726 153.353C563.15 151.254 560.956 148.821 559.143 146.055C557.426 143.193 556.568 139.711 556.568 135.608C556.568 129.503 558.619 124.59 562.721 120.869C566.823 117.053 572.213 115.145 578.891 115.145C580.99 115.145 582.898 115.336 584.615 115.717C586.428 116.004 588.05 116.385 589.481 116.862C590.912 117.244 592.152 117.625 593.201 118.007C594.346 118.293 595.3 118.436 596.063 118.436C596.826 118.436 597.399 118.198 597.78 117.721L598.496 137.469L597.923 137.612C596.397 133.51 593.964 130.171 590.625 127.595C587.286 124.924 583.709 123.588 579.893 123.588C577.031 123.588 574.55 124.399 572.452 126.021C570.353 127.642 569.303 130.123 569.303 133.462C569.303 136.324 570.162 138.804 571.879 140.903C573.692 142.906 575.886 144.767 578.462 146.484C581.133 148.201 583.995 149.918 587.048 151.636C590.101 153.257 592.915 155.165 595.491 157.36C598.162 159.458 600.356 161.986 602.073 164.944C603.886 167.806 604.792 171.336 604.792 175.533C604.792 179.54 604.029 183.022 602.503 185.98C601.072 188.937 599.164 191.417 596.779 193.421C594.394 195.424 591.627 196.903 588.479 197.857C585.426 198.811 582.23 199.288 578.891 199.288ZM608.776 197.571C611.065 196.807 612.639 195.233 613.498 192.848C614.452 190.368 614.929 186.457 614.929 181.114V133.319C614.929 127.976 614.452 124.113 613.498 121.728C612.639 119.247 611.065 117.625 608.776 116.862V116.433H633.961V116.862C631.672 117.625 630.05 119.247 629.096 121.728C628.237 124.113 627.808 127.976 627.808 133.319V181.114C627.808 186.457 628.237 190.368 629.096 192.848C630.05 195.233 631.672 196.807 633.961 197.571V198H608.776V197.571ZM637.983 197.571C639.509 197.094 640.654 196.283 641.417 195.138C642.276 193.993 642.896 192.705 643.277 191.274C643.659 189.843 643.897 188.365 643.993 186.838C644.088 185.216 644.136 183.785 644.136 182.545V133.891C644.136 129.026 643.659 125.257 642.705 122.586C641.751 119.915 640.177 118.007 637.983 116.862V116.433C644.184 116.051 649.669 116.767 654.439 118.579C659.304 120.297 663.55 122.825 667.175 126.164C670.896 129.407 674.044 133.319 676.62 137.898C679.291 142.382 681.485 147.199 683.202 152.351V131.888C683.202 130.552 683.154 129.121 683.059 127.595C682.964 126.068 682.725 124.59 682.344 123.159C681.962 121.728 681.342 120.44 680.483 119.295C679.72 118.15 678.575 117.339 677.049 116.862V116.433H699.659V116.862C698.132 117.339 696.94 118.15 696.081 119.295C695.318 120.44 694.746 121.728 694.364 123.159C693.982 124.59 693.744 126.068 693.648 127.595C693.553 129.121 693.505 130.552 693.505 131.888V198H683.345C683.345 190.082 682.582 182.497 681.056 175.247C679.625 167.997 677.574 161.509 674.902 155.785C672.327 150.061 669.274 145.339 665.744 141.619C662.214 137.898 658.446 135.608 654.439 134.75V182.545C654.439 183.785 654.487 185.216 654.582 186.838C654.678 188.365 654.916 189.843 655.298 191.274C655.679 192.705 656.252 193.993 657.015 195.138C657.873 196.283 659.066 197.094 660.592 197.571V198H637.983V197.571ZM703.384 197.571C705.673 196.807 707.247 195.233 708.106 192.848C709.06 190.368 709.537 186.457 709.537 181.114V133.319C709.537 127.976 709.06 124.113 708.106 121.728C707.247 119.247 705.673 117.625 703.384 116.862V116.433H748.031C749.08 116.433 750.177 116.385 751.322 116.29C752.562 116.099 753.421 115.765 753.898 115.288L746.314 130.743L745.884 130.6C746.361 126.593 743.595 124.59 737.585 124.59H722.416V146.055H722.702C723.752 144.147 725.087 142.62 726.709 141.475C728.426 140.331 730.382 139.758 732.576 139.758C733.912 139.758 735.152 139.949 736.297 140.331C737.537 140.617 738.729 140.998 739.874 141.475C741.019 141.857 742.164 142.239 743.309 142.62C744.549 143.002 745.741 143.193 746.886 143.193C749.271 143.193 751.036 142.286 752.181 140.474L752.61 140.617C752.324 141.952 751.799 143.336 751.036 144.767C750.273 146.102 749.367 147.343 748.317 148.487C747.268 149.537 746.075 150.443 744.74 151.206C743.499 151.874 742.116 152.208 740.59 152.208C739.35 152.208 738.157 152.017 737.012 151.636C735.867 151.159 734.723 150.682 733.578 150.205C732.433 149.728 731.241 149.298 730 148.917C728.856 148.44 727.615 148.201 726.28 148.201C724.753 148.201 723.465 148.726 722.416 149.775V189.414H736.869C740.876 189.414 744.453 188.412 747.602 186.409C750.845 184.405 753.135 181.734 754.47 178.395L755.043 178.538L751.179 199.574C750.893 199.097 750.321 198.716 749.462 198.429C748.699 198.143 747.888 198 747.029 198H703.384V197.571ZM783.479 199.288C778.9 199.288 774.416 198.382 770.028 196.569C765.735 194.756 762.158 192.037 759.296 188.412L764.59 169.094H765.02C765.401 172.624 766.26 175.676 767.595 178.252C768.931 180.828 770.505 182.974 772.318 184.692C774.226 186.409 776.277 187.697 778.471 188.555C780.665 189.319 782.812 189.7 784.91 189.7C788.154 189.7 790.921 188.746 793.21 186.838C795.595 184.835 796.788 181.973 796.788 178.252C796.788 175.104 795.881 172.48 794.069 170.382C792.352 168.187 790.157 166.184 787.486 164.371C784.91 162.559 782.048 160.794 778.9 159.077C775.847 157.36 772.985 155.452 770.314 153.353C767.738 151.254 765.544 148.821 763.732 146.055C762.014 143.193 761.156 139.711 761.156 135.608C761.156 129.503 763.207 124.59 767.309 120.869C771.411 117.053 776.801 115.145 783.479 115.145C785.578 115.145 787.486 115.336 789.203 115.717C791.016 116.004 792.638 116.385 794.069 116.862C795.5 117.244 796.74 117.625 797.789 118.007C798.934 118.293 799.888 118.436 800.651 118.436C801.415 118.436 801.987 118.198 802.369 117.721L803.084 137.469L802.512 137.612C800.985 133.51 798.553 130.171 795.214 127.595C791.875 124.924 788.297 123.588 784.481 123.588C781.619 123.588 779.139 124.399 777.04 126.021C774.941 127.642 773.892 130.123 773.892 133.462C773.892 136.324 774.75 138.804 776.468 140.903C778.28 142.906 780.474 144.767 783.05 146.484C785.721 148.201 788.583 149.918 791.636 151.636C794.689 153.257 797.503 155.165 800.079 157.36C802.75 159.458 804.944 161.986 806.662 164.944C808.474 167.806 809.381 171.336 809.381 175.533C809.381 179.54 808.617 183.022 807.091 185.98C805.66 188.937 803.752 191.417 801.367 193.421C798.982 195.424 796.215 196.903 793.067 197.857C790.014 198.811 786.818 199.288 783.479 199.288ZM838.12 199.288C833.541 199.288 829.057 198.382 824.669 196.569C820.376 194.756 816.798 192.037 813.936 188.412L819.231 169.094H819.66C820.042 172.624 820.9 175.676 822.236 178.252C823.572 180.828 825.146 182.974 826.958 184.692C828.866 186.409 830.917 187.697 833.112 188.555C835.306 189.319 837.452 189.7 839.551 189.7C842.795 189.7 845.561 188.746 847.851 186.838C850.236 184.835 851.428 181.973 851.428 178.252C851.428 175.104 850.522 172.48 848.71 170.382C846.992 168.187 844.798 166.184 842.127 164.371C839.551 162.559 836.689 160.794 833.541 159.077C830.488 157.36 827.626 155.452 824.955 153.353C822.379 151.254 820.185 148.821 818.372 146.055C816.655 143.193 815.797 139.711 815.797 135.608C815.797 129.503 817.848 124.59 821.95 120.869C826.052 117.053 831.442 115.145 838.12 115.145C840.219 115.145 842.127 115.336 843.844 115.717C845.657 116.004 847.279 116.385 848.71 116.862C850.141 117.244 851.381 117.625 852.43 118.007C853.575 118.293 854.529 118.436 855.292 118.436C856.055 118.436 856.628 118.198 857.009 117.721L857.725 137.469L857.152 137.612C855.626 133.51 853.193 130.171 849.854 127.595C846.515 124.924 842.938 123.588 839.122 123.588C836.26 123.588 833.779 124.399 831.681 126.021C829.582 127.642 828.532 130.123 828.532 133.462C828.532 136.324 829.391 138.804 831.108 140.903C832.921 142.906 835.115 144.767 837.691 146.484C840.362 148.201 843.224 149.918 846.277 151.636C849.33 153.257 852.144 155.165 854.72 157.36C857.391 159.458 859.585 161.986 861.302 164.944C863.115 167.806 864.021 171.336 864.021 175.533C864.021 179.54 863.258 183.022 861.732 185.98C860.301 188.937 858.393 191.417 856.008 193.421C853.623 195.424 850.856 196.903 847.708 197.857C844.655 198.811 841.459 199.288 838.12 199.288Z" fill="#4F6F52"/>
<line x1="338.5" y1="56" x2="338.5" y2="241" stroke="#4F6F52" stroke-width="9"/>
</svg>
